<?xml version="1.0" encoding="utf-8"?>
<!-- Generator: Adobe Illustrator 24.0.2, SVG Export Plug-In . SVG Version: 6.00 Build 0)  -->
<svg version="1.1" id="Layer_1" xmlns="http://www.w3.org/2000/svg" xmlns:xlink="http://www.w3.org/1999/xlink" x="0px" y="0px"
	 viewBox="0 0 800 300" style="enable-background:new 0 0 1000 800;" xml:space="preserve" preserveAspectRatio="xMinYMax meet">
<style type="text/css">
	.st0{opacity:0.18;}
	.st1{fill:none;stroke:#000000;stroke-miterlimit:10;}
	.st2{fill:#FFFFFF;}
	.st3{fill:#CCCCCC;stroke:#000000;stroke-width:0.75;stroke-miterlimit:10;}
	.st4{fill:#505050;stroke:#000000;stroke-width:0.75;stroke-miterlimit:10;}
	.st5{opacity:0.27;fill:#505050;stroke:#000000;stroke-width:0.25;stroke-miterlimit:10;}
	.st6{fill:#A0A0A0;stroke:#000000;stroke-width:0.75;stroke-miterlimit:10;}
	.st7{opacity:0.27;fill:#505050;}
	.st8{fill:#A0A0A0;stroke:#000000;stroke-width:0.5;stroke-miterlimit:10;}
	.st9{clip-path:url(#SVGID_2_);fill:#CCCCCC;stroke:#000000;stroke-width:0.25;stroke-miterlimit:10;}
	.st10{fill:#646464;stroke:#000000;stroke-width:0.25;stroke-miterlimit:10;}
	.st11{fill:#FFFFFF;stroke:#000000;stroke-width:0.25;stroke-miterlimit:10;}
	.st12{fill:#A0A0A0;stroke:#000000;stroke-width:0.25;stroke-miterlimit:10;}
	.st13{fill:#CCCCCC;stroke:#000000;stroke-width:0.25;stroke-miterlimit:10;}
	.st14{fill:#AFAFAF;}
	.st15{fill:#646464;}
	.st16{fill:#CCCCCC;}
	.st17{fill:#969696;}
	.st18{opacity:0.18;fill-rule:evenodd;clip-rule:evenodd;fill:#CCCCCC;stroke:#000000;stroke-width:0.25;stroke-miterlimit:10;}
</style>
<g id="g8948" transform="matrix(.81108 0 0 .81108 553.02 -138.86)" class="st0">
	<g id="g8808" transform="translate(-4.9835)">
		<rect id="rect8388" x="-661.3" y="410.73" class="st1" width="183.44" height="131.54"/>
		<g id="g8540" transform="translate(.67865)">
			<g id="g8501" transform="translate(-3.565)">
				<g id="g8481">
					<g id="g8412" transform="translate(0 -.91668)">
						<rect id="rect8390" x="-651.89" y="423.01" class="st2" width="34.39" height="34.4"/>
						<path id="rect8392" class="st3" d="M-649.65,425.26v14.12h14.12v-14.12H-649.65z M-633.85,425.26v14.12h14.12v-14.12
							C-619.74,425.26-633.85,425.26-633.85,425.26z M-649.65,441.06v14.12h14.12v-14.12H-649.65z M-633.85,441.06v14.12h14.12
							v-14.12C-619.74,441.06-633.85,441.06-633.85,441.06z"/>
					</g>
					<rect id="rect8469" x="-653.38" y="457.98" class="st4" width="37.37" height="6.85"/>
				</g>
			</g>
			<g id="g8508" transform="translate(7.1301)">
				<g id="g8489" transform="translate(107.92 -.91668)">
					<rect id="rect8491" x="-634.52" y="423.01" class="st2" width="34.39" height="34.4"/>
					<path id="path8493" class="st3" d="M-632.28,425.26v14.12h14.12v-14.12H-632.28z M-616.48,425.26v14.12h14.12v-14.12
						C-602.36,425.26-616.48,425.26-616.48,425.26z M-632.28,441.06v14.12h14.12v-14.12H-632.28z M-616.48,441.06v14.12h14.12
						v-14.12C-602.36,441.06-616.48,441.06-616.48,441.06z"/>
				</g>
				<rect id="rect8495" x="-528.08" y="457.98" class="st4" width="37.37" height="6.85"/>
			</g>
			<g id="g8514" transform="translate(35.975)">
				<g id="g8516">
					<g id="g8518" transform="translate(0 -.91668)">
						<rect id="rect8520" x="-646.1" y="423.01" class="st2" width="34.39" height="34.4"/>
						<path id="path8522" class="st3" d="M-643.86,425.26v14.12h14.12v-14.12H-643.86z M-628.06,425.26v14.12h14.12v-14.12
							C-613.94,425.26-628.06,425.26-628.06,425.26z M-643.86,441.06v14.12h14.12v-14.12H-643.86z M-628.06,441.06v14.12h14.12
							v-14.12C-613.94,441.06-628.06,441.06-628.06,441.06z"/>
					</g>
					<rect id="rect8524" x="-647.59" y="457.98" class="st4" width="37.37" height="6.85"/>
				</g>
			</g>
			<g id="g8526" transform="translate(75.514)">
				<g id="g8528">
					<g id="g8530" transform="translate(0 -.91668)">
						<rect id="rect8532" x="-640.31" y="423.01" class="st2" width="34.39" height="34.4"/>
						<path id="path8534" class="st3" d="M-638.07,425.26v14.12h14.12v-14.12H-638.07z M-622.27,425.26v14.12h14.12v-14.12
							C-608.15,425.26-622.27,425.26-622.27,425.26z M-638.07,441.06v14.12h14.12v-14.12H-638.07z M-622.27,441.06v14.12h14.12
							v-14.12C-608.15,441.06-622.27,441.06-622.27,441.06z"/>
					</g>
					<rect id="rect8536" x="-641.79" y="457.98" class="st4" width="37.37" height="6.85"/>
				</g>
			</g>
		</g>
		<rect id="rect8538" x="-603.21" y="478.09" class="st5" width="67.25" height="64.18"/>
		<path id="path8604" class="st6" d="M-599.88,481.43v60.84h29.02v-60.84H-599.88z M-568.24,481.43v60.84h28.95v-60.84
			C-539.29,481.43-568.24,481.43-568.24,481.43z"/>
		<path id="path8596" class="st3" d="M-593.95,488.45v43.45h17.13v-43.45H-593.95z M-562.35,488.45v43.45h17.13v-43.45H-562.35z"/>
		<path id="rect8640" class="st4" d="M-661.12,470.54v2.4h46.22v69.33h7.42v-69.33h75.81v69.33h7.42v-69.33h46.22v-2.4H-661.12
			L-661.12,470.54z"/>
		<g id="g8796">
			<g id="g8790">
				<g id="g8457" transform="translate(-2.8876 8.84)">
					<rect id="rect8430" x="-651.89" y="469.25" class="st2" width="34.4" height="49.9"/>
					<path id="path8450" class="st3" d="M-649.65,471.37v14.12h14.12v-14.12H-649.65z M-633.85,471.37v14.12h14.12v-14.12
						C-619.74,471.37-633.85,471.37-633.85,471.37z M-649.65,487.13v14.12h14.12v-14.12H-649.65z M-633.85,487.13v14.12h14.12
						v-14.12C-619.74,487.13-633.85,487.13-633.85,487.13z M-649.65,502.89v14.12h14.12v-14.12H-649.65z M-633.85,502.89v14.12
						h14.12v-14.12C-619.74,502.89-633.85,502.89-633.85,502.89z"/>
				</g>
				<rect id="rect8662" x="-656.27" y="529.7" class="st5" width="37.37" height="6.85"/>
			</g>
			<g id="g8780" transform="translate(-.32410)">
				<g id="g8461" transform="translate(116.06 8.84)">
					<rect id="rect8463" x="-634.51" y="469.25" class="st2" width="34.4" height="49.9"/>
					<path id="path8465" class="st3" d="M-632.27,471.37v14.12h14.12v-14.12H-632.27z M-616.47,471.37v14.12h14.12v-14.12
						C-602.36,471.37-616.47,471.37-616.47,471.37z M-632.27,487.13v14.12h14.12v-14.12H-632.27z M-616.47,487.13v14.12h14.12
						v-14.12C-602.36,487.13-616.47,487.13-616.47,487.13z M-632.27,502.89v14.12h14.12v-14.12H-632.27z M-616.47,502.89v14.12
						h14.12v-14.12C-602.36,502.89-616.47,502.89-616.47,502.89z"/>
				</g>
				<rect id="rect8731" x="-519.94" y="529.7" class="st7" width="37.37" height="6.85"/>
			</g>
		</g>
	</g>
	<g id="g8937">
		<path id="rect8850" class="st3" d="M-662.85,367.75L-676,417.15h60.44h81.97h60.44l-13.15-49.41h-47.29h-81.97
			C-615.55,367.75-662.85,367.75-662.85,367.75z"/>
		<path id="path8911" class="st8" d="M-653.16,367.75l-11.68,49.41h11.5l10.21-49.41H-653.16z M-633.41,367.75l-8.78,49.41h10.43
			l7.42-49.41H-633.41z M-613.99,367.75l-5.91,49.41h8.85l4.73-49.41H-613.99z M-595.9,367.75l-3.15,49.41h8.38l2.11-49.41H-595.9z
			 M-578.13,367.75l-0.5,49.41h8.13l-0.5-49.41H-578.13z M-560.54,367.75l2.08,49.41h8.38l-3.15-49.41H-560.54z M-542.8,367.75
			l4.73,49.41h8.85l-5.88-49.41H-542.8z M-524.78,367.75l7.42,49.41h10.43l-8.78-49.41H-524.78z M-506.01,367.75l10.21,49.41h11.5
			l-11.68-49.41H-506.01z"/>
		<g id="g8886" transform="translate(-5.1855)">
			<g id="g8874">
				<rect id="rect8862" x="-638.12" y="347.56" class="st6" width="21.55" height="35.67"/>
				<rect id="rect8870" x="-639.98" y="347.56" class="st3" width="25.27" height="8.27"/>
			</g>
			<g id="g8878" transform="translate(101.12)">
				<rect id="rect8880" x="-623.31" y="347.56" class="st6" width="21.55" height="35.67"/>
				<rect id="rect8882" x="-625.17" y="347.56" class="st3" width="25.27" height="8.27"/>
			</g>
		</g>
	</g>
</g>
<g id="g4758" transform="matrix(.59794 0 0 .59794 246.73 82.297)" class="st0">
	<path id="path7089" class="st2" d="M494.4,133.15c-3.07,1.82-62.65,37.27-86.33,53.6l-16.46,31.56v148.27H597.2V218.32
		l-16.46-31.56C557.05,170.43,497.47,134.98,494.4,133.15L494.4,133.15z"/>
	<g>
		<defs>
			<path id="SVGID_1_" d="M494.4,133.15c-3.07,1.82-62.65,37.27-86.33,53.6l-16.46,31.56v148.27H597.2V218.32l-16.46-31.56
				C557.05,170.43,497.47,134.98,494.4,133.15L494.4,133.15z"/>
		</defs>
		<use xlink:href="#SVGID_1_"  style="overflow:visible;fill:#FFFFFF;"/>
		<clipPath id="SVGID_2_">
			<use xlink:href="#SVGID_1_"  style="overflow:visible;"/>
		</clipPath>
		<path id="rect4782" class="st9" d="M488.22,127.1c-3.25,2.11-6.4,4.17-12.32,8.05v241.19h12.32V127.1L488.22,127.1z M500.58,127.1
			v249.24h12.29V135.11C506.96,131.25,503.82,129.21,500.58,127.1L500.58,127.1z M525.27,143.23v233.11h12.29V151.39
			C533.33,148.57,529.27,145.87,525.27,143.23L525.27,143.23z M463.54,143.27c-4,2.64-8.06,5.34-12.29,8.16v224.9h12.29V143.27
			L463.54,143.27z M549.95,159.71v216.62h12.29V168.1C558.29,165.37,554.22,162.59,549.95,159.71L549.95,159.71z M438.85,159.75
			c-4.27,2.88-8.33,5.66-12.29,8.4v208.18h12.29V159.75L438.85,159.75z M414.17,176.81c-2.19,1.57-4.28,3.08-6.09,4.43l-6.2,12.9
			v182.18h12.29L414.17,176.81L414.17,176.81z M574.64,176.81v199.51h12.29V194.07l-6.16-12.83
			C578.95,179.88,576.84,178.39,574.64,176.81L574.64,176.81z"/>
		<use xlink:href="#SVGID_1_"  style="overflow:visible;fill:none;stroke:#000000;stroke-width:0.25;stroke-miterlimit:10;"/>
	</g>
	<path id="path7084" class="st10" d="M494.4,125.75l-90.11,52.27l-25.77,48.37l8.27,5.91l24.72-45.39l82.89-49.34l82.93,49.34
		l24.72,45.39l8.23-5.91l-25.73-48.37L494.4,125.75L494.4,125.75z"/>
	<g id="g4757" transform="translate(1.5283)">
		<g id="g7147" transform="translate(4.2593 -9.016)">
			<path id="path7102" class="st10" d="M507.16,179.71c0,10.24-8.3,18.54-18.54,18.54c-10.24,0-18.54-8.3-18.54-18.54
				c0-10.24,8.3-18.54,18.54-18.54C498.86,161.17,507.16,169.47,507.16,179.71z"/>
			<path id="path7104" class="st11" d="M487.4,164.47c-7.46,0.6-13.41,6.55-14.01,14.01h14.01V164.47z M489.83,164.47v14.01h14.01
				C503.24,171.02,497.3,165.06,489.83,164.47z M473.39,180.92c0.59,7.47,6.54,13.41,14.01,14.01v-14.01H473.39z M489.83,180.92
				v14.01c7.48-0.59,13.42-6.53,14.01-14.01H489.83z"/>
		</g>
		<g id="g4703" transform="translate(-1.5212)">
			<g id="g7113" transform="translate(5.7804 -8.2143)">
				<rect id="rect7106" x="403.57" y="215.43" class="st10" width="50.81" height="51.3"/>
				<path id="rect7108" class="st11" d="M407.47,219.37v43.42h20.49v-43.42H407.47z M429.97,219.37v43.42h20.49v-43.42
					C450.47,219.37,429.97,219.37,429.97,219.37z"/>
			</g>
			<g id="g7117" transform="translate(57.804 -16.257)">
				<path id="rect7119" class="st10" d="M411.19,214.25H462v60.52h-50.81V214.25z"/>
				<path id="path7121" class="st11" d="M415.09,218.19v52.65h20.49v-52.65H415.09z M437.59,218.19v52.65h20.49v-52.65H437.59z"/>
			</g>
			<g id="g7123" transform="translate(109.83 -8.2143)">
				<rect id="rect7125" x="418.81" y="215.43" class="st10" width="50.81" height="51.3"/>
				<path id="path7127" class="st11" d="M422.72,219.37v43.42h20.49v-43.42H422.72z M445.22,219.37v43.42h20.49v-43.42
					C465.71,219.37,445.22,219.37,445.22,219.37z"/>
			</g>
		</g>
	</g>
	<g id="g4741">
		<g id="g4733" transform="translate(.0071728)">
			<g id="g3893" transform="translate(5.7804 58.275)">
				<rect id="rect3895" x="403.57" y="225.17" class="st10" width="50.81" height="51.3"/>
				<path id="path3897" class="st11" d="M407.47,229.11v43.42h20.49v-43.42H407.47z M429.97,229.11v43.42h20.49v-43.42
					C450.47,229.11,429.97,229.11,429.97,229.11z"/>
			</g>
			<g id="g3905" transform="translate(109.83 58.275)">
				<rect id="rect3907" x="418.81" y="225.17" class="st10" width="50.81" height="51.3"/>
				<path id="path3909" class="st11" d="M422.72,229.11v43.42h20.49v-43.42H422.72z M445.22,229.11v43.42h20.49v-43.42
					C465.71,229.11,445.22,229.11,445.22,229.11z"/>
			</g>
		</g>
		<g id="g4725">
			<path id="rect3901" class="st10" d="M469,275.46h50.81v78.35H469V275.46z"/>
			<rect id="rect3923" x="458.44" y="355.52" class="st10" width="71.93" height="11.07"/>
			<g id="g4720">
				<path id="path3903" class="st12" d="M472.91,279.4v70.47h42.99V279.4H472.91z"/>
				<rect id="rect4716" x="479.34" y="286.9" class="st11" width="30.12" height="26.74"/>
				<rect id="rect4718" x="506.07" y="320.15" class="st13" width="3.39" height="7.82"/>
			</g>
		</g>
	</g>
</g>
<g id="g6368" transform="matrix(.54049 0 0 .54049 60.756 526.3)" class="st0">
	<g id="g6320" transform="translate(.0047098)">
		<g id="g5995" transform="matrix(.54805 0 0 .56202 40.658 296.91)">
			<path id="rect5997" class="st13" d="M1818.13-1588.52v316.53h366.88v-316.53H1818.13z"/>
			<path id="path5999" class="st14" d="M1818.13-1569.68v1.83h366.88v-1.83H1818.13z M1818.13-1556.13v1.79h366.88v-1.79H1818.13z
				 M1818.13-1542.62v1.83h366.88v-1.83H1818.13z M1818.13-1529.08v1.79h366.88v-1.79H1818.13z M1818.13-1515.57v1.83h366.88v-1.83
				H1818.13z M1818.13-1501.98v1.83h366.88v-1.83H1818.13z M1818.13-1488.47v1.83h366.88v-1.83H1818.13z M1818.13-1474.93v1.83
				h366.88v-1.83H1818.13z M1818.13-1461.42v1.83h366.88v-1.83H1818.13z M1818.13-1447.95v1.83h366.88v-1.83H1818.13z
				 M1818.13-1434.4v1.79h366.88v-1.79H1818.13z M1818.13-1420.89v1.83h366.88v-1.83H1818.13z M1818.13-1407.34v1.79h366.88v-1.79
				H1818.13z M1818.13-1393.84v1.83h366.88v-1.83H1818.13z M1818.13-1380.29v1.79h366.88v-1.79H1818.13z M1818.13-1366.78v1.83
				h366.88v-1.83H1818.13z M1818.13-1353.23v1.79h366.88v-1.79H1818.13z M1818.13-1339.69v1.83h366.88v-1.83H1818.13z
				 M1818.13-1326.14v1.83h366.88v-1.83H1818.13z M1818.13-1312.63v1.83h366.88v-1.83H1818.13z M1818.13-1299.08v1.83h366.88v-1.83
				H1818.13z M1818.13-1285.57v1.83h366.88v-1.83H1818.13z"/>
		</g>
		<g id="g6292">
			<g id="g6285" transform="translate(-.0028581)">
				<rect id="rect5880" x="1045.54" y="-516.92" class="st13" width="184.15" height="98.97"/>
				<path id="rect6240" class="st15" d="M1075.64-516.92v98.96h8.17v-98.96H1075.64z M1085.89-516.92v98.96h8.13v-98.96H1085.89z
					 M1096.1-516.92v98.96h8.17v-98.96H1096.1z M1106.31-516.92v98.96h8.2v-98.96H1106.31z M1116.56-516.92v98.96h8.17v-98.96
					H1116.56z M1126.77-516.92v98.96h8.2v-98.96H1126.77z"/>
				<path id="path6253" class="st13" d="M1045.55-508.85v11.43h9.75v-11.43H1045.55z M1219.92-508.85v11.43h9.78v-11.43H1219.92z
					 M1045.55-494.56v11.39h9.75v-11.39H1045.55z M1219.92-494.56v11.39h9.78v-11.39H1219.92z M1045.55-480.3v11.43h9.75v-11.43
					H1045.55z M1219.92-480.3v11.43h9.78v-11.43H1219.92z M1045.55-466v11.43h9.75V-466H1045.55z M1219.92-466v11.43h9.78V-466
					H1219.92z M1045.55-451.74v11.43h9.75v-11.43H1045.55z M1219.92-451.74v11.43h9.78v-11.43H1219.92z M1045.55-437.44v11.43h9.75
					v-11.43H1045.55z M1219.92-437.44v11.43h9.78v-11.43H1219.92z"/>
			</g>
			<g id="g6277" transform="translate(-1.1111)">
				<g id="g5895" transform="matrix(0.532 0 0 0.532 41.988 385.27)">
					<rect id="rect5882" x="1929.04" y="-1670.08" class="st10" width="138.73" height="90.43"/>
					<path id="rect5884" class="st2" d="M1935.34-1663.9v36.31h36.01v-36.31H1935.34z M1976.81-1663.9v36.31h43.21v-36.31H1976.81z
						 M2025.49-1663.9v36.31h36.01v-36.31C2061.5-1663.9,2025.49-1663.9,2025.49-1663.9z M1935.34-1622.07v36.25h36.01v-36.25
						H1935.34z M1976.81-1622.07v36.25h43.21v-36.25H1976.81z M2025.49-1622.07v36.25h36.01v-36.25H2025.49z"/>
				</g>
				<g id="g5927" transform="matrix(.59695 0 0 .59695 23.686 334.26)">
					<rect id="rect5900" x="1886.32" y="-1402.94" class="st10" width="99.67" height="142.83"/>
					<path id="rect5902" class="st16" d="M1890.95-1397.18v11.11h90.93v-11.11C1981.89-1397.18,1890.95-1397.18,1890.95-1397.18z
						 M1890.95-1384.46v12.54h90.93v-12.54C1981.89-1384.46,1890.95-1384.46,1890.95-1384.46z M1890.95-1370.3v12.54h90.93v-12.54
						C1981.89-1370.3,1890.95-1370.3,1890.95-1370.3z M1890.95-1356.15v12.54h90.93v-12.54
						C1981.89-1356.15,1890.95-1356.15,1890.95-1356.15z M1890.95-1341.96v12.5h6.91v-6.41h5.52v6.41h78.5v-12.5H1890.95
						L1890.95-1341.96z M1890.95-1327.81v12.5h90.93v-12.5h-78.5v6.38h-5.52v-6.38H1890.95L1890.95-1327.81z M1890.95-1313.66v12.5
						h90.93v-12.5H1890.95L1890.95-1313.66z M1890.95-1299.51v12.5h90.93v-12.5C1981.89-1299.51,1890.95-1299.51,1890.95-1299.51z
						 M1890.95-1285.35v12.5h90.93v-12.5C1981.89-1285.35,1890.95-1285.35,1890.95-1285.35z M1890.95-1271.2v11.11h90.93v-11.11
						C1981.89-1271.2,1890.95-1271.2,1890.95-1271.2z"/>
				</g>
			</g>
			<g id="g6097" transform="matrix(.59695 0 0 .59695 32.384 334.28)">
				<g id="g6081">
					<rect id="rect5993" x="1812.03" y="-1540" class="st13" width="183.08" height="102.54"/>
					<g id="g6053" transform="matrix(.94539 0 0 .91339 3.4168 60.049)">
						<g id="g6043" transform="translate(-6.4407)">
							<path id="rect6009" class="st10" d="M1932.7-1740.86v90.43h76.86v-90.43C2009.56-1740.86,1932.7-1740.86,1932.7-1740.86z"/>
							<path id="path6011" class="st2" d="M1938.59-1734.7v36.33h30.45v-36.33H1938.59z M1973.2-1734.7v36.33h30.45v-36.33H1973.2z
								 M1938.59-1692.89v36.29h30.45v-36.29H1938.59z M1973.2-1692.89v36.29h30.45v-36.29H1973.2z"/>
						</g>
						<g id="g6047" transform="translate(72.458)">
							<path id="path6049" class="st10" d="M1944.26-1740.86v90.43h76.86v-90.43C2021.12-1740.86,1944.26-1740.86,1944.26-1740.86z"
								/>
							<path id="path6051" class="st2" d="M1950.15-1734.7v36.33h30.45v-36.33H1950.15z M1984.76-1734.7v36.33h30.45v-36.33H1984.76
								z M1950.15-1692.89v36.29h30.45v-36.29H1950.15z M1984.76-1692.89v36.29h30.45v-36.29H1984.76z"/>
						</g>
					</g>
				</g>
				<g id="g6091">
					<rect id="rect6001" x="1707.83" y="-1540" class="st13" width="94.84" height="102.54"/>
					<g id="g6063" transform="matrix(.94539 0 0 .91339 -94.743 60.049)">
						<path id="path6065" class="st10" d="M1918.43-1740.86v90.43h76.86v-90.43C1995.29-1740.86,1918.43-1740.86,1918.43-1740.86z"
							/>
						<path id="path6067" class="st2" d="M1924.32-1734.7v36.33h30.45v-36.33H1924.32z M1958.93-1734.7v36.33h30.45v-36.33H1958.93z
							 M1924.32-1692.89v36.29h30.45v-36.29H1924.32z M1958.93-1692.89v36.29h30.45v-36.29H1958.93z"/>
					</g>
				</g>
			</g>
		</g>
	</g>
	<g id="g6212">
		<g id="g6189">
			<rect id="rect6158" x="1054.77" y="-658.41" class="st13" width="28.61" height="54.92"/>
			<path id="rect6168" class="st10" d="M1051.18-658.4l2.01,9.67h31.76l2.01-9.67H1051.18z"/>
		</g>
		<g id="g6208">
			<path id="rect6130" class="st10" d="M1021.06-620.57l13.08,29.52h84.04h38.87h84.04l13.08-29.52h-97.13h-38.87
				C1118.19-620.57,1021.06-620.57,1021.06-620.57z"/>
			<g>
				<path id="path6180" class="st17" d="M1033.33-620.57l11.72,29.52h4.08l-11.18-29.52H1033.33L1033.33-620.57z M1051.39-620.57
					l9.71,29.52h3.37l-9.21-29.52H1051.39L1051.39-620.57z M1067.62-620.57l7.88,29.52h2.76l-7.52-29.52H1067.62L1067.62-620.57z
					 M1083.38-620.57l6.09,29.52h2.15l-5.84-29.52H1083.38L1083.38-620.57z M1098.64-620.57l4.37,29.52h1.54l-4.19-29.52H1098.64
					L1098.64-620.57z M1114.34-620.57l2.62,29.52h0.93l-2.51-29.52H1114.34L1114.34-620.57z M1130.06-620.57l0.86,29.52h0.29
					l-0.79-29.52H1130.06z M1144.79-620.57l-0.79,29.52h0.29l0.86-29.52H1144.79z M1159.87-620.57l-2.51,29.52h0.9l2.62-29.52
					H1159.87L1159.87-620.57z M1174.89-620.57l-4.19,29.52h1.54l4.34-29.52H1174.89z M1189.47-620.57l-5.84,29.52h2.15l6.05-29.52
					H1189.47L1189.47-620.57z M1204.52-620.57l-7.52,29.52h2.76l7.85-29.52H1204.52z M1219.99-620.57l-9.21,29.52h3.37l9.67-29.52
					H1219.99z M1237.3-620.57l-11.18,29.52h4.08l11.72-29.52H1237.3L1237.3-620.57z"/>
			</g>
		</g>
	</g>
</g>
<g id="g6368_1_" transform="matrix(.54049 0 0 .54049 60.756 526.3)" class="st0">
	<g id="g6320_1_" transform="translate(.0047098)">
		<g id="g5995_1_" transform="matrix(.54805 0 0 .56202 40.658 296.91)">
			<path id="rect5997_1_" class="st13" d="M2550.97-1588.52v316.53h-366.88v-316.53H2550.97z"/>
			<path id="path5999_1_" class="st14" d="M2550.97-1569.68v1.83h-366.88v-1.83H2550.97z M2550.97-1556.13v1.79h-366.88v-1.79
				H2550.97z M2550.97-1542.62v1.83h-366.88v-1.83H2550.97z M2550.97-1529.08v1.79h-366.88v-1.79H2550.97z M2550.97-1515.57v1.83
				h-366.88v-1.83H2550.97z M2550.97-1501.98v1.83h-366.88v-1.83H2550.97z M2550.97-1488.47v1.83h-366.88v-1.83H2550.97z
				 M2550.97-1474.93v1.83h-366.88v-1.83H2550.97z M2550.97-1461.42v1.83h-366.88v-1.83H2550.97z M2550.97-1447.95v1.83h-366.88
				v-1.83H2550.97z M2550.97-1434.4v1.79h-366.88v-1.79H2550.97z M2550.97-1420.89v1.83h-366.88v-1.83H2550.97z M2550.97-1407.34
				v1.79h-366.88v-1.79H2550.97z M2550.97-1393.83v1.83h-366.88v-1.83H2550.97z M2550.97-1380.29v1.79h-366.88v-1.79H2550.97z
				 M2550.97-1366.78v1.83h-366.88v-1.83H2550.97z M2550.97-1353.23v1.79h-366.88v-1.79H2550.97z M2550.97-1339.68v1.83h-366.88
				v-1.83H2550.97z M2550.97-1326.14v1.83h-366.88v-1.83H2550.97z M2550.97-1312.63v1.83h-366.88v-1.83H2550.97z M2550.97-1299.08
				v1.83h-366.88v-1.83H2550.97z M2550.97-1285.57v1.83h-366.88v-1.83H2550.97z"/>
		</g>
		<g id="g6292_1_">
			<g id="g6285_1_" transform="translate(-.0028581)">
				<rect id="rect5880_1_" x="1246.11" y="-516.92" class="st13" width="184.15" height="98.97"/>
				<path id="rect6240_1_" class="st15" d="M1400.16-516.92v98.96h-8.17v-98.96H1400.16z M1389.92-516.92v98.96h-8.13v-98.96
					H1389.92z M1379.71-516.92v98.96h-8.17v-98.96H1379.71z M1369.49-516.92v98.96h-8.2v-98.96H1369.49z M1359.25-516.92v98.96
					h-8.17v-98.96H1359.25z M1349.04-516.92v98.96h-8.2v-98.96H1349.04z"/>
				<path id="path6253_1_" class="st13" d="M1430.26-508.85v11.43h-9.75v-11.43H1430.26z M1255.89-508.85v11.43h-9.78v-11.43
					H1255.89z M1430.26-494.55v11.39h-9.75v-11.39H1430.26z M1255.89-494.55v11.39h-9.78v-11.39H1255.89z M1430.26-480.29v11.43
					h-9.75v-11.43H1430.26z M1255.89-480.29v11.43h-9.78v-11.43H1255.89z M1430.26-466v11.43h-9.75V-466H1430.26z M1255.89-466
					v11.43h-9.78V-466H1255.89z M1430.26-451.74v11.43h-9.75v-11.43H1430.26z M1255.89-451.74v11.43h-9.78v-11.43H1255.89z
					 M1430.26-437.44v11.43h-9.75v-11.43H1430.26z M1255.89-437.44v11.43h-9.78v-11.43H1255.89z"/>
			</g>
			<g id="g6277_1_" transform="translate(-1.1111)">
				<g id="g5895_1_" transform="matrix(0.532 0 0 0.532 41.988 385.27)">
					<rect id="rect5882_1_" x="2432.32" y="-1670.08" class="st10" width="138.73" height="90.43"/>
					<path id="rect5884_1_" class="st2" d="M2564.75-1663.9v36.31h-36.01v-36.31H2564.75z M2523.27-1663.9v36.31h-43.21v-36.31
						H2523.27z M2474.6-1663.9v36.31h-36.01v-36.31C2438.59-1663.9,2474.6-1663.9,2474.6-1663.9z M2564.75-1622.07v36.25h-36.01
						v-36.25H2564.75z M2523.28-1622.07v36.25h-43.21v-36.25H2523.28z M2474.6-1622.07v36.25h-36.01v-36.25H2474.6z"/>
				</g>
				<g id="g5927_1_" transform="matrix(.59695 0 0 .59695 23.686 334.26)">
					<rect id="rect5900_1_" x="2085.79" y="-1402.94" class="st10" width="99.67" height="142.83"/>
					<path id="rect5902_1_" class="st16" d="M2180.83-1397.17v11.11h-90.93v-11.11C2089.9-1397.17,2180.83-1397.17,2180.83-1397.17z
						 M2180.83-1384.45v12.54h-90.93v-12.54C2089.9-1384.45,2180.83-1384.45,2180.83-1384.45z M2180.83-1370.3v12.54h-90.93v-12.54
						C2089.9-1370.3,2180.83-1370.3,2180.83-1370.3z M2180.83-1356.15v12.54h-90.93v-12.54
						C2089.9-1356.15,2180.83-1356.15,2180.83-1356.15z M2180.83-1341.96v12.5h-6.91v-6.41h-5.52v6.41h-78.5v-12.5H2180.83
						L2180.83-1341.96z M2180.83-1327.81v12.5h-90.93v-12.5h78.5v6.38h5.52v-6.38H2180.83L2180.83-1327.81z M2180.83-1313.66v12.5
						h-90.93v-12.5H2180.83L2180.83-1313.66z M2180.83-1299.5v12.5h-90.93v-12.5C2089.9-1299.5,2180.83-1299.5,2180.83-1299.5z
						 M2180.83-1285.35v12.5h-90.93v-12.5C2089.9-1285.35,2180.83-1285.35,2180.83-1285.35z M2180.83-1271.2v11.11h-90.93v-11.11
						C2089.9-1271.2,2180.83-1271.2,2180.83-1271.2z"/>
				</g>
			</g>
			<g id="g6097_1_" transform="matrix(.59695 0 0 .59695 32.384 334.28)">
				<g id="g6081_1_">
					<rect id="rect5993_1_" x="2043.8" y="-1540" class="st13" width="183.08" height="102.54"/>
					<g id="g6053_1_" transform="matrix(.94539 0 0 .91339 3.4168 60.049)">
						<g id="g6043_1_" transform="translate(-6.4407)">
							<path id="rect6009_1_" class="st10" d="M2345.18-1740.86v90.43h-76.86v-90.43
								C2268.32-1740.86,2345.18-1740.86,2345.18-1740.86z"/>
							<path id="path6011_1_" class="st2" d="M2339.29-1734.7v36.33h-30.45v-36.33H2339.29z M2304.68-1734.7v36.33h-30.45v-36.33
								H2304.68z M2339.29-1692.89v36.29h-30.45v-36.29H2339.29z M2304.68-1692.89v36.29h-30.45v-36.29H2304.68z"/>
						</g>
						<g id="g6047_1_" transform="translate(72.458)">
							<path id="path6049_1_" class="st10" d="M2175.82-1740.86v90.43h-76.86v-90.43
								C2098.96-1740.86,2175.82-1740.86,2175.82-1740.86z"/>
							<path id="path6051_1_" class="st2" d="M2169.93-1734.7v36.33h-30.45v-36.33H2169.93z M2135.32-1734.7v36.33h-30.45v-36.33
								H2135.32z M2169.93-1692.89v36.29h-30.45v-36.29H2169.93z M2135.32-1692.89v36.29h-30.45v-36.29H2135.32z"/>
						</g>
					</g>
				</g>
				<g id="g6091_1_">
					<rect id="rect6001_1_" x="2236.24" y="-1540" class="st13" width="94.84" height="102.54"/>
					<g id="g6063_1_" transform="matrix(.94539 0 0 .91339 -94.743 60.049)">
						<path id="path6065_1_" class="st10" d="M2554.22-1740.86v90.43h-76.86v-90.43
							C2477.36-1740.86,2554.22-1740.86,2554.22-1740.86z"/>
						<path id="path6067_1_" class="st2" d="M2548.33-1734.7v36.33h-30.45v-36.33H2548.33z M2513.72-1734.7v36.33h-30.45v-36.33
							H2513.72z M2548.33-1692.89v36.29h-30.45v-36.29H2548.33z M2513.72-1692.89v36.29h-30.45v-36.29H2513.72z"/>
					</g>
				</g>
			</g>
		</g>
	</g>
	<g id="g6212_1_">
		<g id="g6189_1_">
			<rect id="rect6158_1_" x="1392.43" y="-658.41" class="st13" width="28.61" height="54.92"/>
			<path id="rect6168_1_" class="st10" d="M1424.63-658.4l-2.01,9.67h-31.76l-2.01-9.67H1424.63z"/>
		</g>
		<g id="g6208_1_">
			<path id="rect6130_1_" class="st10" d="M1236.33-591.04l11.7-29.52h75.17h34.76h75.17l11.7,29.52h-86.87h-34.76
				C1323.21-591.04,1236.33-591.04,1236.33-591.04z"/>
			<path id="path6180_1_" class="st17" d="M1430.76-591.04h-4.08 M1424.42-620.57l-9.71,29.52h-3.37l9.21-29.52H1424.42
				L1424.42-620.57z M1408.19-620.57l-7.88,29.52h-2.76l7.52-29.52H1408.19L1408.19-620.57z M1392.43-620.57l-6.09,29.52h-2.15
				l5.84-29.52H1392.43L1392.43-620.57z M1377.17-620.57l-4.37,29.52h-1.54l4.19-29.52H1377.17L1377.17-620.57z M1361.47-620.57
				l-2.62,29.52h-0.93l2.51-29.52H1361.47L1361.47-620.57z M1345.74-620.57l-0.86,29.52h-0.29l0.79-29.52H1345.74z M1331.02-620.57
				l0.79,29.52h-0.29l-0.86-29.52H1331.02z M1315.94-620.57l2.51,29.52h-0.9l-2.62-29.52H1315.94L1315.94-620.57z M1300.92-620.57
				l4.19,29.52h-1.54l-4.34-29.52H1300.92z M1286.34-620.57l5.84,29.52h-2.15l-6.05-29.52H1286.34L1286.34-620.57z M1271.29-620.57
				l7.52,29.52h-2.76l-7.85-29.52H1271.29z M1255.81-620.57l9.21,29.52h-3.37l-9.67-29.52H1255.81z M1249.69-591.04h-4.08
				 M1238.51-620.57L1238.51-620.57"/>
		</g>
	</g>
</g>
<g id="cloud3" class="clouds">
	<path id="cloud1_2_" class="st18" d="M129.88,71.04c15,0,56.52-0.04,75,0c18.48,0.04,30,2.5,30-12.5c0-15-20-20-20-20s5-15-10-25
		c-15-10-35,5-35,5s-10-15-25-10s-15,20-15,20s-15-2.5-22.5,7.5c-7.5,10-7.5,15-7.5,25C99.88,71.04,114.88,71.04,129.88,71.04"/>
	<path id="cloud1" class="st18" d="M61.05,87.97c15,0,56.52-0.04,75,0c18.48,0.04,30,2.5,30-12.5s-20-20-20-20s5-15-10-25
		s-35,5-35,5s-10-15-25-10s-15,20-15,20s-15-2.5-22.5,7.5s-7.5,15-7.5,25S46.05,87.97,61.05,87.97"/>
	<path id="cloud1_1_" class="st18" d="M167.05,93.97c15,0,56.52-0.04,75,0c18.48,0.04,30,2.5,30-12.5s-20-20-20-20s5-15-10-25
		c-15-10-35,5-35,5s-10-15-25-10s-15,20-15,20s-15-2.5-22.5,7.5s-7.5,15-7.5,25S152.05,93.97,167.05,93.97"/>
</g>
<g id="cloud2" class="clouds">
	<path id="path380" class="st18" d="M475.45,110.47c15,0,56.52-0.04,75,0c18.48,0.04,30,2.5,30-12.5S569,69,569,69
		s-3.55-6.03-18.55-16.03s-35,5-35,5s-10-15-25-10s-22.71,12.29-22.71,12.29s-7.29,5.21-14.79,15.21s-7.5,15-7.5,25
		S460.45,110.47,475.45,110.47"/>
	<path id="path380_1_" class="st18" d="M533.45,95.47c15,0,56.52-0.04,75,0c18.48,0.04,30,2.5,30-12.5S627,54,627,54
		s-3.55-6.03-18.55-16.03s-35,5-35,5s-10-15-25-10s-22.71,12.29-22.71,12.29s-7.29,5.21-14.79,15.21c-7.5,10-7.5,15-7.5,25
		S518.45,95.47,533.45,95.47"/>
</g>
<path id="cloud4" class="st18 clouds" d="M759.07,63.24c-15,0-56.52-0.04-75,0c-18.48,0.04-30,2.5-30-12.5s20-20,20-20s-5-15,10-25
	s35,5,35,5s10-15,25-10s15,20,15,20s15-2.5,22.5,7.5s7.5,15,7.5,25S774.07,63.24,759.07,63.24"/>
</svg>
